<svg width="500" height="500" viewBox="0 0 500 500" fill="none" xmlns="http://www.w3.org/2000/svg">
<path d="M358.687 209.067C358.687 209.76 359.327 210.285 360.027 210.167L384.605 206.032C386.102 205.78 387.438 206.981 387.304 208.458L375.37 339.456C375.257 340.701 374.128 341.62 372.852 341.505L261.181 331.415C260.842 331.384 260.501 331.391 260.164 331.434L232.026 335.016L164.327 343.266C163.547 343.361 163.096 344.175 163.486 344.84C167.416 351.547 174.524 356.291 182.917 357.049L380.426 374.894C394.227 376.141 406.439 366.208 407.667 352.736L421.774 197.875C423.229 181.902 408.783 168.918 392.588 171.643L359.637 177.186C359.088 177.279 358.687 177.743 358.687 178.286V209.067Z" fill="url(#paint0_linear_499_1085)"/>
<path fill-rule="evenodd" clip-rule="evenodd" d="M114.467 160.693C113.671 160.131 112.566 160.741 112.652 161.695L124.632 293.202C124.744 294.433 125.863 295.341 127.127 295.227L304.351 279.215C305.53 279.108 306.431 278.145 306.431 276.992V193.951C306.431 193.065 305.422 192.532 304.66 193.016L254.965 224.543C239.057 234.635 218.407 234.13 203.039 223.272L114.467 160.693ZM78.2263 151.595C76.7712 135.623 91.2173 122.639 107.412 125.363L319.028 160.965C331.034 162.985 339.806 173.146 339.806 185.034V286.45C339.806 299.066 329.958 309.607 317.083 310.77L119.574 328.615C105.773 329.862 93.5606 319.928 92.3335 306.457L78.2263 151.595Z" fill="url(#paint1_linear_499_1085)"/>
<defs>
<linearGradient id="paint0_linear_499_1085" x1="406.209" y1="261.246" x2="119.871" y2="168.83" gradientUnits="userSpaceOnUse">
<stop stop-color="#FF9700"/>
<stop offset="1" stop-color="#DD0088"/>
</linearGradient>
<linearGradient id="paint1_linear_499_1085" x1="48.3334" y1="186.384" x2="338.411" y2="242.548" gradientUnits="userSpaceOnUse">
<stop stop-color="#8A16DC"/>
<stop offset="0.345" stop-color="#1652DC"/>
<stop offset="1" stop-color="#25BFF3"/>
</linearGradient>
</defs>
</svg>
